<?xml version="1.0" encoding="UTF-8"?>
<svg id="Layer_1" xmlns="http://www.w3.org/2000/svg" version="1.1" viewBox="0 0 512 512">
  <!-- Generator: Adobe Illustrator 29.5.1, SVG Export Plug-In . SVG Version: 2.1.0 Build 141)  -->
  <defs>
    <style>
      .st0 {
        fill: #00a651;
      }

      .st1 {
        fill: #cceddc;
        opacity: .3;
      }
    </style>
  </defs>
  <rect class="st1" x="11" y="94" width="490" height="278"/>
  <path class="st0" d="M508.5,359.01H28.06c-2.66,0-6.94.84-9.51,0-.66-.22.46,1.21.02.14-.22-.54,0-1.67,0-2.25v-9.34c0-28.01,0-56.01,0-84.02s0-72.6,0-108.9c0-23.17,0-46.33,0-69.5v-3.47l-15.08,25.32h109.64c34.98,0,69.95,0,104.93,0,37.02,0,74.05,0,111.07,0h95.7c19.7,0,39.4,0,59.1,0,2.66,0,6.94-.84,9.51,0,.66.22-.46-1.21-.02-.14.22.54,0,1.67,0,2.25v275.23c0,1.57,1.42-.38,1.76-.73,1.96-2.02,3.63-5.07,5.08-7.42,2.02-3.28,3.93-6.64,5.65-10.09.9-1.81,2.67-4.39,2.67-6.42v-94.22c0-49.83,0-99.66,0-149.5v-34.28l-.08-.66h-48.74c-39.02,0-78.03,0-117.05,0-47.2,0-94.4,0-141.6,0-40.79,0-81.59,0-122.38,0h-40.21c-6.06,0-13.17-1.03-19.16,0-.27.05-.59,0-.87,0-2.56,0-6.85,8.97-7.78,10.53-1.63,2.74-3.2,5.52-4.63,8.37-.9,1.81-2.67,4.39-2.67,6.42v278l.08.66h469.97c6.06,0,13.17,1.03,19.16,0,.27-.05.59,0,.87,0,1.04,0,2.84-2.9,3.12-3.27,2.07-2.85,3.93-5.92,5.68-8.97s3.49-6.18,4.92-9.41c.17-.38,1.79-4.34,1.28-4.34Z"/>
</svg>