<?xml version="1.0" encoding="UTF-8"?>
<svg id="Layer_1" xmlns="http://www.w3.org/2000/svg" version="1.1" viewBox="0 0 512 512">
  <!-- Generator: Adobe Illustrator 29.5.1, SVG Export Plug-In . SVG Version: 2.1.0 Build 141)  -->
  <defs>
    <style>
      .st0 {
        fill: #00a651;
      }

      .st1 {
        fill: #cceddc;
        opacity: .3;
      }
    </style>
  </defs>
  <rect class="st1" x="67" y="52" width="377" height="375" transform="translate(16 495) rotate(-90)"/>
  <path class="st0" d="M435.42,63.33c0,12.5,0,25,0,37.5v90.05c0,36.31,0,72.62,0,108.94,0,31.39,0,62.77,0,94.16,0,15.2-.48,30.48,0,45.68,0,.23,0,.45,0,.68l15.08-25.32c-12.45,0-24.9,0-37.35,0-29.89,0-59.79,0-89.68,0-36.31,0-72.62,0-108.93,0-31.17,0-62.34,0-93.5,0-14.87,0-30.15,1.02-44.99,0-1.05-.07-.21,1.2-.47-.22-.31-1.69,0-3.74,0-5.45v-23.94c0-28.66,0-57.31,0-85.97,0-36.01,0-72.02,0-108.02,0-32.39,0-64.77,0-97.16,0-17.69,0-35.39,0-53.08v-2.49c-5.03,8.44-10.05,16.88-15.08,25.32,12.45,0,24.9,0,37.35,0,29.89,0,59.79,0,89.68,0h107.96c31.26,0,62.53,0,93.79,0h30.91c4.52,0,10.22.95,14.67,0,.19-.04.44,0,.64,0,1.04,0,2.84-2.9,3.12-3.27,2.07-2.85,3.93-5.92,5.68-8.97s3.49-6.18,4.92-9.41c.17-.38,1.79-4.34,1.28-4.34-12.45,0-24.9,0-37.35,0-29.89,0-59.79,0-89.68,0-35.99,0-71.97,0-107.96,0-31.26,0-62.53,0-93.79,0h-30.91c-4.52,0-10.22-.95-14.67,0-.19.04-.44,0-.64,0-2.56,0-6.85,8.97-7.78,10.53-1.63,2.74-3.2,5.52-4.63,8.37-.9,1.81-2.67,4.39-2.67,6.42,0,12.5,0,25,0,37.5,0,30.02,0,60.03,0,90.05,0,36.31,0,72.62,0,108.94,0,31.39,0,62.77,0,94.16v30.91c0,4.49-1.02,10.36,0,14.76.05.2,0,.47,0,.68l.08.66c12.45,0,24.9,0,37.35,0h89.68c35.99,0,71.97,0,107.96,0h93.79c10.3,0,20.61,0,30.91,0,4.52,0,10.22.95,14.67,0,.19-.04.44,0,.64,0,2.56,0,6.85-8.97,7.78-10.53,1.63-2.74,3.2-5.52,4.63-8.37.9-1.81,2.67-4.39,2.67-6.42,0-12.5,0-25,0-37.5v-90.05c0-36.31,0-72.62,0-108.94,0-31.39,0-62.77,0-94.16v-30.91c0-4.49,1.01-10.35,0-14.76-.05-.2,0-.47,0-.68,0-1.57-1.42.38-1.76.73-1.96,2.02-3.63,5.07-5.08,7.42-2.02,3.28-3.93,6.64-5.65,10.09-.9,1.81-2.67,4.39-2.67,6.42Z"/>
</svg>