<?xml version="1.0" encoding="UTF-8"?>
<svg id="Layer_1" xmlns="http://www.w3.org/2000/svg" version="1.1" viewBox="0 0 512 512">
  <!-- Generator: Adobe Illustrator 29.5.1, SVG Export Plug-In . SVG Version: 2.1.0 Build 141)  -->
  <defs>
    <style>
      .st0 {
        fill: #fbdfea;
      }

      .st0, .st1 {
        isolation: isolate;
      }

      .st2 {
        fill: #ec008c;
      }

      .st1 {
        fill: #f8d0e1;
      }
    </style>
  </defs>
  <g id="Layer_2">
    <polygon class="st0" points="176.15 493.23 316.3 454.21 427.03 505.66 429.9 497.34 267.31 5.83 263.42 5 87.33 327.94 174.19 385.51 176.15 493.23"/>
    <polygon class="st1" points="256.23 121.74 314.89 448.17 180.71 494.64 230.08 419.92 240.36 411.6 256.23 121.74"/>
  </g>
  <g id="Layer_11">
    <path class="st2" d="M436.48,503.67c-26.1-80-52.72-160.36-79.75-240.42-16.57-48.74-33.14-97.48-49.71-146.23-15.3-44.57-28.48-80.84-39.71-111.19-4.25-11.45-4-8.63.88,6.98,7.59,24.2,15.45,49.09,23.43,74.63,14.02,44.53,28.26,89.52,42.43,134.56,20.15,63.95,39.89,127.71,60.39,191.14,8.92,27.96,17.85,55.92,26.77,83.88-30.94-15.63-61.93-31.34-92.95-46.91-7.95-47.1-17.94-95.92-28.85-144.29-11.13-48.83-22.38-97.83-33.47-145.94-.55-2.22-1.07-4.58-1.62-6.8-5.69-24.01-9.13-38.2-8.09-31.34,2.27,13.81,7.81,47.58,15.94,96.42,2.6,15.57,5.27,31.59,7.97,47.46,9.65,57.84,20.38,114.61,32.01,172.09l2.74,10.45-12.51,3.67.06.08-92.3,28.23h0l-12.61,3.87,48.58-60.15.2.1c.18-.26.42-.44.6-.7,1.16-1.12,2.38-2.17,3.59-3.21.2-.9.62-1.84.89-2.8-.14-2.02,0-4,.49-6,1.27-30.38,2.5-60.49,3.21-90.45.86-33.58,1.07-67.04,1.23-101.22.19-31.32-.06-59.56.39-85.56.16-9.76.05-11.06-.4-.7-.88,16.44-1.76,33.38-2.7,50.75-1.95,31.64-3.88,63.65-5.88,95.71-2.67,41.83-5.33,84.15-7.43,126.56-3.2-1.59-6.35-3.11-9.55-4.7-2.34-1.61-4.95-3.41-7.97-5.26-5.01-2.99-10.37-5.96-15.82-8.86-9.77-5.16-19.62-10.26-29.43-15.13-1-.5-2.24-.81-3.52-.85-.58.06-1.1.2-1.62.34-25.61-13.38-51.52-26.66-77.59-39.82,47.5-87.51,93.4-177.31,138.92-264.46,1.47-2.86,3.05-5.93,4.54-8.93,16.11-31.8,27.69-56.3,25.18-53.66-4.85,5.03-28.64,44.25-62.7,103.72-11.63,20.79-23.52,41.89-35.34,62.94-29.46,53.13-58.54,106.59-87.1,159.92-.08.06-.02.14-.1.2-1.89,3.8-.34,8.52,3.46,10.41l84.7,42.11.75,72.94h0l.41,41.76c.05,2.22,1.01,4.5,2.87,5.97,3.33,2.75,8.26,2.16,10.94-1.1h0l1.56-1.92c40.59-11.93,81.23-24.14,121.78-37.3,4.2-1.41,9.01-2.66,13.17-3.79.52-.14.96-.22,1.48-.36l11.61,5.77h0l94.51,46.99c1.8.9,3.84,1.11,5.86.47,4.28-1.47,6.55-5.93,5.2-10.05l-.02-.02h0ZM179.72,424.31c-.14-1.52.09-3.2.17-4.76.94-9.22,1.2-18.68,1.3-28.02l53.86,26.78c-18.43,22.4-36.92,44.72-55.35,67.13.49-20.28,1.21-40.6.02-61.12h0Z"/>
  </g>
</svg>