<?xml version="1.0" encoding="UTF-8"?>
<svg id="Layer_1" xmlns="http://www.w3.org/2000/svg" version="1.1" viewBox="0 0 512 512">
  <!-- Generator: Adobe Illustrator 29.5.1, SVG Export Plug-In . SVG Version: 2.1.0 Build 141)  -->
  <defs>
    <style>
      .st0 {
        fill: #cce8ff;
      }

      .st1 {
        fill: #008cff;
      }
    </style>
  </defs>
  <polygon class="st0" points="132.5 495.5 82.5 14.5 432.5 14.5 382.5 495.5 132.5 495.5"/>
  <path class="st1" d="M140.08,483.17c-1.66-16-3.33-32-4.99-48.01-3.98-38.25-7.95-76.5-11.93-114.75-4.81-46.25-9.62-92.51-14.42-138.76-4.17-40.13-8.34-80.25-12.51-120.38-2.02-19.39-3.39-38.97-6.06-58.28-.04-.27-.06-.55-.09-.83l-15.08,25.32c15.97,0,31.94,0,47.92,0,36.2,0,72.41,0,108.61,0,38.87,0,77.74,0,116.61,0,23.96,0,47.93,0,71.89,0,1.41,0,3.43-.38,4.81,0,.64.18-.25-1.01.05-.39.13.25-.11,1.13-.15,1.4-.78,5.62-1.18,11.33-1.76,16.98-2.67,25.72-5.35,51.45-8.02,77.17-3.88,37.32-7.76,74.65-11.64,111.97-4.14,39.79-8.27,79.59-12.41,119.38-3.44,33.13-6.89,66.27-10.33,99.4-1.8,17.34-3.61,34.69-5.41,52.03l-.25,2.4,15.08-25.32c-28.22,0-56.44,0-84.65,0-44.79,0-89.58,0-134.37,0h-30.98c-1.04,0-2.84,2.9-3.12,3.27-2.07,2.85-3.93,5.92-5.68,8.97s-3.49,6.18-4.92,9.41c-.17.38-1.79,4.34-1.28,4.34,28.22,0,56.44,0,84.65,0,44.79,0,89.58,0,134.37,0h30.98c2.56,0,6.85-8.97,7.78-10.53,2.48-4.17,6.78-9.83,7.3-14.79,1.66-16,3.33-32,4.99-48.01l11.93-114.75c4.81-46.25,9.62-92.51,14.42-138.76,4.17-40.13,8.34-80.25,12.51-120.38,1.37-13.21,2.75-26.41,4.12-39.62l1.27-12.17c.21-2.02.87-4.46.67-6.49-.02-.26.06-.56.09-.83l-.08-.66c-11.6,0-23.21,0-34.81,0-27.87,0-55.74,0-83.6,0-33.71,0-67.43,0-101.14,0-29.14,0-58.28,0-87.42,0-9.56,0-19.13,0-28.69,0-4.22,0-9.55-.88-13.7,0-.19.04-.43,0-.63,0-2.56,0-6.85,8.97-7.78,10.53-1.63,2.74-3.2,5.52-4.63,8.37-.83,1.66-2.86,4.57-2.67,6.42,1.66,16,3.33,32,4.99,48.01,3.98,38.25,7.95,76.5,11.93,114.75,4.81,46.25,9.62,92.51,14.42,138.76,4.17,40.13,8.34,80.25,12.51,120.38l4.12,39.62c.61,5.87.29,12.96,1.94,18.66.07.25.06.56.09.83.15,1.43,1.2-.16,1.76-.73,1.96-2.02,3.63-5.07,5.08-7.42,2.02-3.28,3.93-6.64,5.65-10.09.83-1.66,2.86-4.57,2.67-6.42Z"/>
</svg>