<?xml version="1.0" encoding="UTF-8"?>
<svg id="Layer_1" xmlns="http://www.w3.org/2000/svg" version="1.1" viewBox="0 0 512 512">
  <!-- Generator: Adobe Illustrator 29.5.1, SVG Export Plug-In . SVG Version: 2.1.0 Build 141)  -->
  <defs>
    <style>
      .st0 {
        fill: #00a651;
      }

      .st1 {
        fill: #cceddc;
      }

      .st2 {
        opacity: .3;
      }
    </style>
  </defs>
  <g class="st2">
    <circle class="st1" cx="259.5" cy="260.5" r="213.5"/>
  </g>
  <path class="st0" d="M465.42,272.83c-.07,21.81-3.2,43.7-9.94,64.47-3.07,9.46-6.97,19.04-11.04,26.88,1.3-2.51-.73,1.32-.81,1.47,1.7-3.15-.41.69-.64,1.1-2.17,3.82,1.55-2.7-.65,1.09s1.47-2.18-.88,1.41-4.32,6.48-7.46,10.55c-25.72,33.38-62.2,58.5-102.32,71.24-83.13,26.4-176.21-1.73-230.93-69.56-26.86-33.29-43.41-74.56-46.58-117.25-1.62-21.83.07-43.9,5.09-65.2,2.44-10.34,5.67-20.52,9.76-30.33,2.01-4.83,3.32-7.61,5.54-11.87-1.3,2.51.73-1.32.81-1.47-.28.51-1.5,2.58-.02.04.24-.41,2.49-4.17.63-1.1.45-.75.91-1.49,1.37-2.24-.76,1.18-.7,1.08.19-.3,2.32-3.54,4.39-6.56,7.46-10.55s6.57-8.14,10.07-12.02c6.94-7.7,14.54-14.82,22.56-21.37,16.45-13.44,34.93-24.49,54.64-32.43,40.24-16.21,85.27-19.68,127.56-10.01,84,19.22,149.85,89.83,163.12,174.98,1.68,10.75,2.45,21.61,2.48,32.48,0,1.57,1.41-.38,1.76-.73,1.96-2.02,3.63-5.07,5.08-7.42,2.02-3.28,3.93-6.64,5.65-10.09.9-1.8,2.68-4.39,2.67-6.42-.15-45.04-14.11-89.28-40.58-125.8s-62.35-62.72-103.87-76.92c-43.42-14.85-91.44-15.22-135.09-1.06-42.2,13.69-79,40.43-105.92,75.59-29.85,38.98-52.01,86.04-56,135.4-3.65,45.14,7.07,90.99,30.78,129.62,23.02,37.51,57.62,67.48,98.08,84.82,41.95,17.97,89.44,21.93,133.82,11.33,43.09-10.3,81.95-34.08,111.37-67.11,17.29-19.41,31.41-41.95,42.88-65.22,10.42-21.14,18.16-43.51,21.87-66.83,1.78-11.19,2.63-22.49,2.67-33.82,0-1.58-1.43.39-1.76.73-1.96,2.02-3.63,5.07-5.08,7.42-2.02,3.28-3.93,6.64-5.65,10.09-.9,1.81-2.66,4.38-2.67,6.42Z"/>
</svg>