<?xml version="1.0" encoding="UTF-8"?>
<svg xmlns="http://www.w3.org/2000/svg" version="1.1" viewBox="0 0 512 512">
  <!-- Generator: Adobe Illustrator 29.5.1, SVG Export Plug-In . SVG Version: 2.1.0 Build 141)  -->
  <defs>
    <style>
      .st0 {
        opacity: .47;
      }

      .st0, .st1 {
        fill: #00aeef;
      }

      .st2 {
        fill: #c4e9fb;
      }
    </style>
  </defs>
  <g id="Layer_2">
    <polygon class="st2" points="173.42 15.62 313.58 54.65 424.31 3.19 427.18 11.52 264.58 503.02 260.7 503.85 84.61 180.92 171.47 123.34 173.42 15.62"/>
    <polygon class="st0" points="256.23 391.2 314.89 64.77 180.71 18.3 230.08 93.02 240.36 101.34 256.23 391.2"/>
  </g>
  <g id="Layer_1">
    <path class="st1" d="M431.28-.78c-2.02-.64-4.06-.43-5.86.47l-94.51,46.99h0l-11.61,5.77c-.52-.14-.96-.22-1.48-.36-4.16-1.13-8.97-2.38-13.17-3.79-40.55-13.15-81.18-25.36-121.78-37.3l-1.56-1.92h0c-2.67-3.27-7.61-3.86-10.94-1.1-1.86,1.48-2.83,3.75-2.87,5.97l-.41,41.76h0l-.75,72.94-84.7,42.11c-3.8,1.89-5.36,6.61-3.46,10.41.08.06.02.14.1.2,28.56,53.32,57.64,106.79,87.1,159.92,11.81,21.05,23.7,42.15,35.34,62.94,34.07,59.48,57.86,98.69,62.7,103.72,2.51,2.65-9.07-21.86-25.18-53.66-1.49-3-3.07-6.07-4.54-8.93-45.52-87.14-91.42-176.95-138.92-264.46,26.07-13.16,51.98-26.44,77.59-39.82.52.14,1.04.28,1.62.34,1.28-.04,2.52-.35,3.52-.85,9.81-4.88,19.66-9.98,29.43-15.13,5.45-2.91,10.81-5.88,15.82-8.86,3.02-1.85,5.63-3.65,7.97-5.26,3.2-1.59,6.35-3.11,9.55-4.7,2.1,42.4,4.77,84.73,7.43,126.56,2.01,32.06,3.93,64.07,5.88,95.71.94,17.36,1.82,34.3,2.7,50.75.46,10.36.56,9.06.4-.7-.44-26-.2-54.24-.39-85.56-.16-34.18-.37-67.64-1.23-101.22-.71-29.96-1.94-60.06-3.21-90.45-.5-2-.63-3.98-.49-6-.28-.96-.7-1.9-.89-2.8-1.22-1.04-2.44-2.09-3.59-3.21-.18-.26-.42-.44-.6-.7l-.2.1-48.58-60.15,12.61,3.87h0l92.3,28.23-.06.08,12.51,3.67-2.74,10.45c-11.63,57.47-22.36,114.25-32.01,172.09-2.7,15.87-5.37,31.89-7.97,47.46-8.13,48.84-13.67,82.61-15.94,96.42-1.04,6.86,2.4-7.33,8.09-31.34.55-2.22,1.07-4.58,1.62-6.8,11.09-48.11,22.34-97.11,33.47-145.94,10.91-48.38,20.9-97.19,28.85-144.29,31.02-15.57,62.01-31.28,92.95-46.91-8.92,27.96-17.85,55.92-26.77,83.88-20.5,63.43-40.25,127.19-60.39,191.14-14.16,45.05-28.4,90.04-42.43,134.56-7.98,25.54-15.83,50.42-23.43,74.63-4.88,15.61-5.12,18.43-.88,6.98,11.23-30.35,24.41-66.62,39.71-111.19,16.57-48.74,33.14-97.48,49.71-146.23,27.02-80.06,53.64-160.42,79.75-240.42,1.35-4.12-.92-8.58-5.2-10.05ZM179.69,27.51c18.43,22.4,36.92,44.72,55.35,67.13l-53.86,26.78c-.1-9.34-.36-18.8-1.3-28.02-.08-1.56-.31-3.24-.17-4.76,1.19-20.52.47-40.84-.02-61.12Z"/>
  </g>
</svg>