<?xml version="1.0" encoding="UTF-8"?>
<svg id="Layer_1" xmlns="http://www.w3.org/2000/svg" version="1.1" viewBox="0 0 512 512">
  <!-- Generator: Adobe Illustrator 29.5.1, SVG Export Plug-In . SVG Version: 2.1.0 Build 141)  -->
  <defs>
    <style>
      .st0 {
        fill: #fbd3d3;
      }

      .st1 {
        fill: #ec2125;
      }
    </style>
  </defs>
  <polygon class="st0" points="498 380 17 430 17 80 498 130 498 380"/>
  <path class="st1" d="M505.5,367.01c-12.06,1.25-24.12,2.51-36.18,3.76-30.1,3.13-60.19,6.26-90.29,9.39-39,4.05-78,8.11-117.01,12.16-38.78,4.03-77.56,8.06-116.33,12.09-29.42,3.06-58.85,6.12-88.27,9.18-8.35.87-16.7,1.74-25.05,2.6-2.01.21-4.3.15-6.26.65-.72.18-2.08-.03-1.53.65-.55-.67,0-4.09,0-4.92v-47.91c0-36.83,0-73.67,0-110.5,0-38.49,0-76.98,0-115.47,0-22.58,0-45.15,0-67.73v-3.3l-15.08,25.32c9.51.99,19.01,1.98,28.52,2.96,24.35,2.53,48.7,5.06,73.05,7.59,32.79,3.41,65.57,6.82,98.36,10.22,35.31,3.67,70.61,7.34,105.92,11.01,31.44,3.27,62.89,6.54,94.33,9.81,21.27,2.21,42.53,4.42,63.8,6.63l14.93,1.55c.57.06,1.56-.03,2.09.22,0,0-.32-1.13-.07.22.15.84,0,1.84,0,2.69v246.43c0,1.57,1.42-.38,1.76-.73,1.96-2.02,3.63-5.07,5.08-7.42,2.02-3.28,3.93-6.64,5.65-10.09.9-1.81,2.67-4.39,2.67-6.42v-84.65c0-44.79,0-89.58,0-134.37v-30.98l-.08-.66c-16-1.66-32-3.33-48.01-4.99-38.25-3.98-76.5-7.95-114.75-11.93-46.25-4.81-92.51-9.62-138.76-14.42-40.13-4.17-80.25-8.34-120.38-12.51-13.21-1.37-26.41-2.75-39.62-4.12l-12.17-1.27c-2-.21-4.48-.89-6.49-.67-.26.03-.57-.06-.83-.09-2.32-.24-7.01,9.23-7.78,10.53-1.63,2.74-3.2,5.52-4.63,8.37-.9,1.81-2.67,4.39-2.67,6.42v335.66c0,4.1-1,9.69,0,13.7.05.18,0,.44,0,.63l.08.66c16-1.66,32-3.33,48.01-4.99,38.25-3.98,76.5-7.95,114.75-11.93,46.25-4.81,92.51-9.62,138.76-14.42,40.13-4.17,80.25-8.34,120.38-12.51l39.62-4.12c5.97-.62,12.84-.42,18.66-1.94.26-.07.56-.06.83-.09,1.12-.12,2.72-2.74,3.12-3.27,2.07-2.85,3.93-5.92,5.68-8.97s3.49-6.18,4.92-9.41c.17-.38,1.71-4.38,1.28-4.34Z"/>
</svg>