<?xml version="1.0" encoding="UTF-8"?>
<svg id="Layer_1" xmlns="http://www.w3.org/2000/svg" version="1.1" viewBox="0 0 482.98 423.27">
  <!-- Generator: Adobe Illustrator 29.5.1, SVG Export Plug-In . SVG Version: 2.1.0 Build 141)  -->
  <defs>
    <style>
      .st0 {
        opacity: .47;
      }

      .st0, .st1 {
        fill: #00aeef;
      }

      .st2 {
        fill: #c4e9fb;
      }
    </style>
  </defs>
  <polygon class="st2" points="194.8 416.79 123.29 290.09 8.6 248.18 12.46 240.26 474.98 7.69 478.31 9.85 374.48 362.71 273.49 336.7 194.8 416.79"/>
  <polygon class="st0" points="401.82 92.67 129.52 282 191.54 409.75 199.7 318.89 208.08 308.85 401.82 92.67"/>
  <path class="st1" d="M.86,246.06c.97,1.88,2.57,3.17,4.47,3.81l100.05,33.6h0l12.29,4.13c.27.47.52.84.79,1.3,2.14,3.74,4.66,8.03,6.63,11.99,19.37,37.97,39.47,75.34,59.74,112.48l3.44,5.57c0,.71,4.97,6.74,9.5,3.21l29.82-29.23h0l52.1-51.05,89.66,30.11c4.03,1.35,8.46-.89,9.81-4.91-.01-.1.09-.11.07-.21,17.51-57.9,34.76-116.27,51.49-174.67,6.53-23.23,13.05-46.57,19.52-69.49,17.97-66.14,28.88-110.7,29-117.68.09-3.65-9.04,21.87-20.14,55.75-1.07,3.18-2.12,6.46-3.1,9.52-29.43,93.81-60.48,189.76-88.77,285.23-27.74-9.13-152.03-49.22-155.42-50.36,28.5-31.47,56.54-63.29,84.23-94.75,21.25-24.09,42.52-48.09,63.52-71.84,11.61-12.94,22.97-25.55,33.97-37.8,7-7.65,6.01-6.8-.78.21-18.07,18.7-38.21,38.49-60.23,60.77-24.05,24.28-47.57,48.09-70.71,72.45-20.68,21.69-41.1,43.85-61.68,66.23-1.06,1.77-2.37,3.26-3.9,4.59-.48.88-.85,1.84-1.35,2.61.12,1.6.25,3.2.27,4.81-.06.31-.02.61-.07.92l.21.07-8.18,76.89-6.18-11.65h0l-45.3-85.22h.1s-6.25-11.46-6.25-11.46l9.33-5.45c48.86-32.42,96.6-64.98,144.32-99.05,13.13-9.32,26.35-18.75,39.19-27.93,40.29-28.79,68.08-48.75,79.45-56.91,5.58-4.12-6.88,3.49-27.88,16.44-1.95,1.18-3.99,2.48-5.95,3.66-41.86,26.18-84.46,52.87-126.87,79.53-41.92,26.49-83.5,53.95-122.43,81.63-32.94-10.92-65.97-21.73-98.89-32.55,26.08-13.46,52.16-26.92,78.24-40.38,59.35-30.36,118.4-61.48,177.86-92.45,41.87-21.84,83.75-43.58,125.15-65.15,23.7-12.42,46.85-24.46,69.34-36.2,14.48-7.59,16.65-9.41,5.55-4.31-29.4,13.52-64.37,29.85-106.7,50.54-46.18,22.75-92.37,45.5-138.55,68.25C154.97,159.17,79.32,197.16,4.3,235.28c-3.87,1.96-5.42,6.72-3.43,10.78ZM198.77,403.95c2.81-28.87,5.52-57.73,8.33-86.6l57.02,19.15c-6.53,6.67-13.04,13.55-18.9,20.73-1.05,1.16-2.07,2.51-3.25,3.49-15.35,13.67-29.21,28.54-43.2,43.23Z"/>
</svg>